<svg width="300" height="400" viewBox="0 0 300 400" xmlns="http://www.w3.org/2000/svg">
  <defs>
    <linearGradient id="bookGradient" x1="0%" y1="0%" x2="100%" y2="100%">
      <stop offset="0%" style="stop-color:oklch(0.7 0.28 145);stop-opacity:1" />
      <stop offset="100%" style="stop-color:oklch(0.3 0.4 145);stop-opacity:1" />
    </linearGradient>
  </defs>
  <rect width="300" height="400" fill="url(#bookGradient)" rx="8" ry="8"/>
  <rect x="20" y="20" width="260" height="360" fill="none" stroke="rgba(255,255,255,0.3)" stroke-width="2" rx="4" ry="4"/>
  <g transform="translate(150, 200)">
    <path d="M-30 -20 L-30 20 L-10 20 L-10 10 L10 10 L10 20 L30 20 L30 -20 L10 -20 L10 -10 L-10 -10 L-10 -20 Z" fill="rgba(255,255,255,0.8)"/>
    <rect x="-25" y="-15" width="20" height="2" fill="rgba(255,255,255,0.6)"/>
    <rect x="-25" y="-10" width="15" height="2" fill="rgba(255,255,255,0.6)"/>
    <rect x="-25" y="-5" width="18" height="2" fill="rgba(255,255,255,0.6)"/>
    <rect x="5" y="-15" width="20" height="2" fill="rgba(255,255,255,0.6)"/>
    <rect x="5" y="-10" width="15" height="2" fill="rgba(255,255,255,0.6)"/>
    <rect x="5" y="-5" width="18" height="2" fill="rgba(255,255,255,0.6)"/>
  </g>
  <text x="150" y="350" text-anchor="middle" fill="rgba(255,255,255,0.9)" font-family="Inter, sans-serif" font-size="16" font-weight="500">No Cover Available</text>
</svg>